<svg id="Layer_2" data-name="Layer 2" xmlns="http://www.w3.org/2000/svg" viewBox="0 0 177.53 36.42"><defs><style>.cls-1{fill:#2f90ba;}.cls-2{fill:#04b776;}</style></defs><path class="cls-1" d="M7155.79,7208.63l-6.16-24.26h3.31l2.88,12.27c.72,3,1.37,6,1.8,8.39h.08c.39-2.41,1.15-5.29,2-8.42l3.24-12.24h3.27l3,12.31c.69,2.88,1.33,5.76,1.69,8.31h.08c.5-2.66,1.18-5.36,1.94-8.38l3.2-12.24h3.21l-6.88,24.26h-3.27l-3.06-12.64a73.66,73.66,0,0,1-1.59-7.91h-.07a75.12,75.12,0,0,1-1.87,7.91l-3.46,12.64Z" transform="translate(-7111.27 -7179.33)"/><path class="cls-1" d="M7185.13,7186.31a2,2,0,0,1-3.92,0,1.93,1.93,0,0,1,2-2A1.89,1.89,0,0,1,7185.13,7186.31Zm-3.53,22.32v-17.42h3.17v17.42Z" transform="translate(-7111.27 -7179.33)"/><path class="cls-1" d="M7189.59,7205.39a8.33,8.33,0,0,0,4.18,1.26c2.3,0,3.38-1.15,3.38-2.59s-.9-2.34-3.24-3.21c-3.13-1.11-4.61-2.84-4.61-4.93,0-2.81,2.27-5.11,6-5.11a8.64,8.64,0,0,1,4.28,1.08l-.79,2.3a6.85,6.85,0,0,0-3.57-1c-1.87,0-2.91,1.08-2.91,2.37s1,2.09,3.31,2.95c3,1.15,4.57,2.67,4.57,5.26,0,3.06-2.37,5.22-6.51,5.22a9.94,9.94,0,0,1-4.9-1.19Z" transform="translate(-7111.27 -7179.33)"/><path class="cls-1" d="M7206,7200.49c.08,4.29,2.81,6.05,6,6.05a11.5,11.5,0,0,0,4.82-.9l.54,2.27a14.13,14.13,0,0,1-5.79,1.08c-5.37,0-8.57-3.53-8.57-8.79s3.1-9.39,8.17-9.39c5.69,0,7.2,5,7.2,8.21a11.08,11.08,0,0,1-.11,1.47Zm9.29-2.26c0-2-.83-5.15-4.39-5.15-3.2,0-4.61,2.95-4.86,5.15Z" transform="translate(-7111.27 -7179.33)"/><path class="cls-2" d="M7225.56,7184.37v10.15h11.73v-10.15h3.17v24.26h-3.17v-11.38h-11.73v11.38h-3.14v-24.26Z" transform="translate(-7111.27 -7179.33)"/><path class="cls-2" d="M7247.55,7200.49c.07,4.29,2.81,6.05,6,6.05a11.5,11.5,0,0,0,4.82-.9l.54,2.27a14.19,14.19,0,0,1-5.8,1.08c-5.36,0-8.56-3.53-8.56-8.79s3.09-9.39,8.17-9.39c5.69,0,7.2,5,7.2,8.21a11.08,11.08,0,0,1-.11,1.47Zm9.29-2.26c0-2-.83-5.15-4.39-5.15-3.21,0-4.61,2.95-4.86,5.15Z" transform="translate(-7111.27 -7179.33)"/><path class="cls-2" d="M7263.82,7183.07H7267v25.56h-3.17Z" transform="translate(-7111.27 -7179.33)"/><path class="cls-2" d="M7272.32,7196.89c0-2.23-.07-4-.15-5.68H7275l.14,3h.07a6.87,6.87,0,0,1,6.2-3.38c4.21,0,7.37,3.56,7.37,8.85,0,6.27-3.81,9.36-7.91,9.36a6.11,6.11,0,0,1-5.37-2.73h-.07v9.46h-3.13Zm3.13,4.65a7.28,7.28,0,0,0,.14,1.29,4.9,4.9,0,0,0,4.76,3.71c3.34,0,5.29-2.74,5.29-6.73,0-3.49-1.84-6.48-5.19-6.48a5,5,0,0,0-4.78,3.92,5.13,5.13,0,0,0-.22,1.3Z" transform="translate(-7111.27 -7179.33)"/><polygon class="cls-1" points="16.73 32.94 16.73 26.99 23.09 25.22 16.73 23.45 16.73 17.5 32.17 25.22 16.73 32.94"/><path class="cls-2" d="M7113.68,7210.7a2.46,2.46,0,0,1-2.41-2.41v-7.08a5.19,5.19,0,0,0,3-1.39,4,4,0,0,0,0-5.83,5.25,5.25,0,0,0-3-1.39v-7.07a2.48,2.48,0,0,1,2.41-2.42h7.12a5.78,5.78,0,0,1,1.59-2.69,4,4,0,0,1,5.51,0,5.78,5.78,0,0,1,1.59,2.69h7a2.48,2.48,0,0,1,2.41,2.42v14l-2.41-1.2v-12.83H7127v-1.93a1.85,1.85,0,1,0-3.7,0v1.93h-9.62v5.22a6.55,6.55,0,0,1,3.12,2.42,6.47,6.47,0,0,1,0,7.48,6.53,6.53,0,0,1-3.12,2.41v5.23h5.07a8.08,8.08,0,0,1,2.74-3.28,6.08,6.08,0,0,1,4.1-1v2.41a4,4,0,0,0-3.3,1.06,5,5,0,0,0-1.53,3.2Z" transform="translate(-7111.27 -7179.33)"/></svg>