<svg width="165" height="90" id="Layer_2" data-name="Layer 2" xmlns="http://www.w3.org/2000/svg" viewBox="0 0 139.17 82.92"><defs><style>.cls-1{fill:#2f90ba;}.cls-2{fill:#03B17C;}</style></defs><path class="cls-1" d="M7136.07,7239.06l-6.15-24.26h3.31l2.88,12.27c.72,3,1.37,6.05,1.8,8.39h.07c.4-2.41,1.15-5.29,2-8.43l3.24-12.23h3.28l3,12.31c.68,2.88,1.33,5.75,1.69,8.31h.07c.51-2.66,1.19-5.36,2-8.39l3.2-12.23h3.2l-6.87,24.26h-3.28l-3.06-12.64a73.07,73.07,0,0,1-1.58-7.92h-.07a75.24,75.24,0,0,1-1.87,7.92l-3.46,12.64Z" transform="translate(-7129.92 -7163.26)"/><path class="cls-1" d="M7165.41,7216.74a1.86,1.86,0,0,1-2,1.94,1.88,1.88,0,0,1-1.91-1.94,1.93,1.93,0,0,1,2-2A1.87,1.87,0,0,1,7165.41,7216.74Zm-3.52,22.32v-17.43h3.16v17.43Z" transform="translate(-7129.92 -7163.26)"/><path class="cls-1" d="M7169.88,7235.82a8.29,8.29,0,0,0,4.17,1.26c2.31,0,3.39-1.16,3.39-2.59s-.9-2.34-3.24-3.21c-3.13-1.11-4.61-2.84-4.61-4.93,0-2.81,2.27-5.11,6-5.11a8.61,8.61,0,0,1,4.28,1.08l-.79,2.3a6.77,6.77,0,0,0-3.56-1c-1.87,0-2.92,1.08-2.92,2.38s1.05,2.09,3.32,2.95c3,1.15,4.57,2.67,4.57,5.26,0,3.06-2.38,5.22-6.52,5.22a9.9,9.9,0,0,1-4.89-1.19Z" transform="translate(-7129.92 -7163.26)"/><path class="cls-1" d="M7186.33,7230.92c.07,4.28,2.81,6.05,6,6.05a11.53,11.53,0,0,0,4.82-.9l.54,2.27a14.23,14.23,0,0,1-5.8,1.08c-5.36,0-8.56-3.53-8.56-8.79s3.09-9.39,8.17-9.39c5.69,0,7.2,5,7.2,8.21a13.13,13.13,0,0,1-.11,1.47Zm9.29-2.27c0-2-.83-5.14-4.39-5.14-3.21,0-4.61,2.95-4.86,5.14Z" transform="translate(-7129.92 -7163.26)"/><path class="cls-2" d="M7205.84,7214.8V7225h11.74V7214.8h3.16v24.26h-3.16v-11.38h-11.74v11.38h-3.13V7214.8Z" transform="translate(-7129.92 -7163.26)"/><path class="cls-2" d="M7227.84,7230.92c.07,4.28,2.81,6.05,6,6.05a11.55,11.55,0,0,0,4.83-.9l.54,2.27a14.23,14.23,0,0,1-5.8,1.08c-5.36,0-8.57-3.53-8.57-8.79s3.1-9.39,8.18-9.39c5.68,0,7.19,5,7.19,8.21a13.66,13.66,0,0,1-.1,1.47Zm9.28-2.27c0-2-.82-5.14-4.39-5.14-3.2,0-4.6,2.95-4.86,5.14Z" transform="translate(-7129.92 -7163.26)"/><path class="cls-2" d="M7244.11,7213.5h3.17v25.56h-3.17Z" transform="translate(-7129.92 -7163.26)"/><path class="cls-2" d="M7252.61,7227.32c0-2.23-.08-4-.15-5.69h2.84l.15,3h.07a6.86,6.86,0,0,1,6.19-3.38c4.21,0,7.38,3.56,7.38,8.85,0,6.27-3.81,9.36-7.92,9.36a6.12,6.12,0,0,1-5.36-2.73h-.07v9.46h-3.13Zm3.13,4.65a7.39,7.39,0,0,0,.14,1.29,4.89,4.89,0,0,0,4.75,3.71c3.35,0,5.29-2.74,5.29-6.73,0-3.49-1.83-6.48-5.18-6.48a5.06,5.06,0,0,0-4.79,3.92,5.12,5.12,0,0,0-.21,1.3Z" transform="translate(-7129.92 -7163.26)"/><polygon class="cls-1" points="70.01 32.94 70.01 26.99 76.36 25.22 70.01 23.45 70.01 17.5 85.45 25.22 70.01 32.94"/><path class="cls-2" d="M7185.61,7194.63a2.46,2.46,0,0,1-2.41-2.41v-7.08a5.19,5.19,0,0,0,3-1.39,4,4,0,0,0,0-5.83,5.25,5.25,0,0,0-3-1.39v-7.08a2.48,2.48,0,0,1,2.41-2.41h7.12a5.69,5.69,0,0,1,1.59-2.69,4,4,0,0,1,5.51,0,5.78,5.78,0,0,1,1.59,2.69h6.95a2.5,2.5,0,0,1,2.42,2.41v14l-2.42-1.21v-12.83h-9.45v-1.93a1.85,1.85,0,1,0-3.7,0v1.93h-9.61v5.23a6.55,6.55,0,0,1,3.12,2.42,6.52,6.52,0,0,1,0,7.48,6.53,6.53,0,0,1-3.12,2.41v5.23h5.07a8.13,8.13,0,0,1,2.73-3.28,6.17,6.17,0,0,1,4.11-1v2.42a4,4,0,0,0-3.3,1.06,5,5,0,0,0-1.53,3.2Z" transform="translate(-7129.92 -7163.26)"/></svg>